<?xml version="1.0" standalone="no"?>
<!DOCTYPE svg PUBLIC "-//W3C//DTD SVG 20010904//EN"
 "http://www.w3.org/TR/2001/REC-SVG-20010904/DTD/svg10.dtd">
<svg version="1.0" xmlns="http://www.w3.org/2000/svg"
 width="500.000000pt" height="500.000000pt" viewBox="0 0 500.000000 500.000000"
 preserveAspectRatio="xMidYMid meet">

<g transform="translate(0.000000,500.000000) scale(0.100000,-0.100000)"
fill="#000000" stroke="none">
<path d="M1890 3860 c-155 -10 -240 -41 -351 -126 -118 -91 -189 -195 -236
-349 -17 -56 -18 -114 -18 -915 0 -919 -1 -891 53 -1030 65 -168 199 -289 402
-362 l65 -23 690 0 c557 0 699 3 738 14 26 7 47 18 47 22 0 8 -111 149 -212
269 -55 66 -124 155 -143 184 l-19 29 49 45 c84 76 191 161 219 173 33 15 40
9 149 -126 45 -55 86 -105 92 -111 5 -7 47 -59 93 -118 46 -58 87 -106 90
-106 17 0 59 85 94 188 l23 67 3 828 c3 924 3 926 -63 1079 -84 197 -288 345
-507 368 -106 11 -1083 11 -1258 0z m32 -245 c15 -32 -1 -51 -56 -66 -101 -26
-210 -126 -241 -219 -22 -68 -31 -80 -62 -80 -72 0 -26 173 74 274 60 60 170
116 230 116 36 0 45 -4 55 -25z m648 -45 c124 -14 188 -34 307 -92 174 -86
306 -218 391 -389 167 -335 105 -732 -156 -1010 l-84 -89 34 -46 33 -46 -45
-40 c-39 -34 -115 -95 -169 -135 -9 -7 -21 -9 -27 -5 -8 5 -83 103 -100 130
-2 2 -29 -4 -61 -14 -94 -28 -268 -30 -382 -5 -346 79 -624 373 -686 726 -19
112 -19 191 1 296 34 180 117 333 255 471 88 88 108 102 211 151 119 58 199
83 301 96 88 12 83 12 177 1z"/>
<path d="M2375 3356 c-93 -19 -141 -37 -227 -87 -92 -54 -153 -111 -217 -203
-59 -85 -84 -144 -105 -249 -40 -191 2 -363 131 -544 48 -68 162 -159 249
-199 134 -63 292 -79 428 -44 98 25 151 49 235 105 87 57 145 118 197 203 106
175 128 394 58 581 -30 78 -109 202 -161 253 -48 45 -147 112 -205 138 -113
50 -268 68 -383 46z m-15 -142 c0 -9 9 -18 20 -21 26 -7 27 -43 1 -43 -12 0
-21 -8 -23 -22 -4 -31 -26 -34 -39 -4 -7 14 -20 26 -31 26 -11 0 -18 7 -18 20
0 13 7 20 19 20 11 0 23 9 26 20 8 24 45 27 45 4z m367 -120 l47 -92 93 -12
c101 -14 143 -35 143 -73 0 -15 -28 -48 -81 -98 l-81 -76 16 -71 c42 -187 8
-221 -138 -137 -44 25 -81 45 -83 45 -2 0 -45 -25 -96 -56 -67 -40 -115 -79
-174 -142 -45 -48 -82 -81 -83 -74 0 7 -5 10 -11 6 -8 -4 -9 1 -4 17 4 17 3
20 -3 10 -8 -11 -15 -10 -41 8 -17 12 -36 31 -42 42 -6 12 -17 18 -25 15 -8
-3 -14 -2 -14 2 0 20 82 124 171 218 54 57 99 110 99 118 0 7 -29 39 -65 71
-74 64 -89 87 -81 119 8 31 40 44 144 57 l89 11 44 90 c73 149 101 149 176 2z
m-598 -254 c16 -53 47 -87 96 -103 52 -18 55 -47 6 -63 -47 -15 -95 -66 -107
-111 -9 -39 -31 -50 -44 -23 -42 91 -46 95 -100 122 -70 34 -72 54 -7 78 54
21 71 38 88 90 23 71 49 74 68 10z m456 -519 c5 -23 15 -33 41 -41 47 -16 48
-53 2 -66 -22 -7 -34 -17 -36 -31 -8 -52 -60 -54 -72 -2 -4 16 -17 28 -40 35
-55 18 -49 57 9 66 18 2 27 12 33 36 7 25 14 32 32 32 19 0 26 -7 31 -29z"/>
</g>
</svg>
