<?xml version="1.0" encoding="UTF-8"?>
<svg xmlns="http://www.w3.org/2000/svg" viewBox="0 0 500 500">
  <defs>
    <style>
      .cls-1 {
        fill: #fff;
      }

      .cls-2, .cls-3 {
        stroke-width: .75px;
      }

      .cls-2, .cls-3, .cls-4 {
        fill: none;
        stroke-miterlimit: 10;
      }

      .cls-2, .cls-4 {
        stroke: #121d30;
      }

      .cls-5 {
        fill: #cb9824;
      }

      .cls-3 {
        stroke: #fff;
      }

      .cls-6 {
        fill: #969696;
      }

      .cls-7 {
        fill: #edb837;
      }

      .cls-8 {
        opacity: .4;
      }

      .cls-9 {
        fill: #d28a7b;
      }

      .cls-10 {
        fill: #121d30;
      }

      .cls-11 {
        fill: #e69230;
      }

      .cls-12 {
        fill: #cb705d;
      }

      .cls-13 {
        fill: #2e363d;
      }
    </style>
  </defs>
  <g id="BACKGROUND">
    <rect class="cls-1" width="500" height="500"/>
  </g>
  <g id="OBJECTS">
    <g class="cls-8">
      <path class="cls-6" d="m61.85,416.61s-51.56-31.03-32.7-72.54c11.09-24.41,59.22-15.32,54.16-55.94-6.64-53.26-59.53-89.14-29.01-134.69,31.43-46.9,109.89,9.04,186.59-40.58,49.5-32.03,137.61-49.95,169.55.97,30.51,48.65-30.48,102.77,13.8,139.12,44.28,36.35,94.99,91.2-16.95,155.83-5.57,3.22-10.47,8.82-16.54,8.82-93.24,0-179.18-.28-179.18-.28"/>
      <path class="cls-6" d="m51.79,371.87c-11.59-1.85-.74,32.16,15.85,27.78,16.59-4.38-6.11-26.22-15.85-27.78Z"/>
      <path class="cls-6" d="m45.31,352.61c-6.64,2.39-4.37,16.81,5.44,13.75,9.82-3.06,1.08-16.11-5.44-13.75Z"/>
      <path class="cls-6" d="m390.74,417.6c-103.93-.28-179.18-.28-179.18-.28"/>
    </g>
    <g>
      <path class="cls-13" d="m411.82,143.73c-1.88-.43-3.67-1.29-5.18-2.49l.49-.61c1.42,1.13,3.1,1.94,4.87,2.34l-.17.76Zm5.75,0l-.17-.76c1.76-.4,3.44-1.22,4.86-2.35l.49.61c-1.51,1.21-3.3,2.07-5.18,2.5Zm-14.52-6.97c-.85-1.75-1.28-3.64-1.29-5.6h.78c0,1.84.41,3.61,1.21,5.26l-.71.34Zm23.29-.02l-.71-.34c.8-1.65,1.2-3.42,1.2-5.27l.56-.04.22.02c0,1.98-.43,3.87-1.28,5.62Zm-22.6-10.85l-.71-.34c.83-1.74,2.07-3.29,3.58-4.5l.49.61c-1.42,1.14-2.58,2.6-3.36,4.23Zm21.88-.07c-.79-1.63-1.96-3.08-3.39-4.21l.49-.61c1.51,1.2,2.76,2.75,3.6,4.48l-.7.34Zm-13.66-6.52l-.18-.76c.95-.22,1.93-.33,2.91-.33h0c.96,0,1.91.1,2.84.31l-.17.76c-.87-.19-1.77-.29-2.67-.29h0c-.92,0-1.84.1-2.73.31Z"/>
      <path class="cls-13" d="m47.56,307.97h-.23s0-.78,0-.78h.22s0,0,0,0c1.73,0,3.45-.19,5.13-.55l.17.76c-1.73.38-3.51.57-5.3.57Zm-5.75-.67c-1.81-.43-3.56-1.07-5.23-1.9l.35-.7c1.61.8,3.31,1.42,5.06,1.83l-.18.76Zm16.31-1.7l-.34-.71c1.62-.77,3.16-1.72,4.57-2.84l.49.61c-1.46,1.15-3.05,2.14-4.72,2.93Zm-26.2-3.22c-1.44-1.18-2.74-2.52-3.88-3.98l.62-.48c1.1,1.42,2.36,2.72,3.75,3.86l-.5.61Zm34.87-3.62l-.61-.49c1.13-1.4,2.1-2.93,2.88-4.55l.7.34c-.81,1.67-1.81,3.25-2.98,4.69Zm-41.63-5.11c-.78-1.68-1.37-3.46-1.75-5.28l.77-.16c.37,1.76.94,3.48,1.69,5.11l-.71.33Zm46.46-4.83l-.76-.17c.4-1.74.6-3.54.6-5.35h.78c0,1.86-.21,3.72-.62,5.52Zm-47.94-5.96h-.78c.03-1.88.28-3.73.72-5.52l.76.19c-.43,1.74-.67,3.53-.7,5.34Zm47.36-4.05c-.34-1.77-.87-3.49-1.6-5.14l.72-.32c.75,1.7,1.3,3.49,1.65,5.31l-.77.15Zm-44.78-6.33l-.7-.35c.84-1.65,1.87-3.21,3.06-4.64l.6.5c-1.15,1.38-2.15,2.89-2.97,4.49Zm40.47-3.45c-1.07-1.44-2.31-2.76-3.68-3.93l.51-.6c1.41,1.2,2.69,2.57,3.8,4.05l-.63.47Zm-33.61-4.76l-.47-.62c1.48-1.12,3.08-2.08,4.77-2.84l.32.71c-1.63.74-3.19,1.67-4.62,2.75Zm25.46-2.18c-1.6-.83-3.29-1.48-5.03-1.93l.2-.76c1.8.46,3.54,1.13,5.19,1.99l-.36.69Zm-15.72-2.22l-.15-.77c1.59-.32,3.22-.48,4.85-.48.23,0,.46,0,.69,0l-.02.78c-.22,0-.46-.02-.67,0-1.58,0-3.16.16-4.7.46Z"/>
      <circle class="cls-13" cx="70.67" cy="297" r="7.44"/>
      <circle class="cls-13" cx="398.95" cy="282.37" r="5.48"/>
      <path class="cls-13" d="m409.59,121.7c0,2.16-1.75,3.92-3.92,3.92s-3.92-1.75-3.92-3.92,1.75-3.92,3.92-3.92,3.92,1.75,3.92,3.92Z"/>
      <path class="cls-13" d="m209.9,117.78c0,3.24-2.63,5.87-5.87,5.87s-5.87-2.63-5.87-5.87,2.63-5.87,5.87-5.87,5.87,2.63,5.87,5.87Z"/>
      <path class="cls-13" d="m214.6,135.8c-.47,0-.93-.03-1.39-.09l.1-.78c1.74.23,3.54-.02,5.16-.71l.31.72c-1.32.57-2.73.86-4.18.86Zm-6.57-2.29c-1.5-1.19-2.65-2.76-3.32-4.54l.73-.28c.63,1.65,1.69,3.1,3.08,4.2l-.49.61Zm15.14-2.09l-.63-.46c1.04-1.43,1.67-3.12,1.82-4.88l.78.07c-.17,1.9-.84,3.72-1.97,5.27Zm-18.36-6.2h-.78c0-1.91.52-3.79,1.49-5.42l.67.4c-.9,1.51-1.38,3.25-1.38,5.02Zm18.61-4.26c-.77-1.59-1.96-2.94-3.43-3.92l.43-.65c1.59,1.05,2.88,2.51,3.71,4.23l-.71.34Zm-13.46-4.36l-.37-.69c1.67-.9,3.6-1.34,5.48-1.25l-.03.78c-1.74-.07-3.53.33-5.08,1.16Z"/>
      <path class="cls-13" d="m410.97,303.35c-1.9-.14-3.71-.66-5.38-1.55l.37-.69c1.58.84,3.29,1.33,5.08,1.46l-.06.78Zm5.56-.72l-.26-.74c1.69-.59,3.21-1.51,4.52-2.73l.53.57c-1.4,1.3-3.01,2.27-4.8,2.89Zm-15.25-4.41c-1.19-1.49-2.03-3.17-2.52-5.01l.76-.2c.46,1.73,1.26,3.31,2.38,4.72l-.61.49Zm23.3-3.05l-.72-.31c.71-1.63,1.08-3.37,1.08-5.17h.78c0,1.91-.38,3.75-1.14,5.49Zm.28-6.89c-.19-1.78-.74-3.47-1.64-5.02l.68-.39c.95,1.65,1.53,3.44,1.73,5.33l-.78.08Zm-25.63-.54l-.77-.12c.28-1.88.94-3.64,1.96-5.25l.66.42c-.96,1.51-1.58,3.18-1.85,4.95Zm20.48-8.43c-1.44-1.07-3.05-1.82-4.8-2.22l.18-.76c1.85.42,3.56,1.22,5.09,2.35l-.47.63Zm-14.96-.32l-.44-.65c1.57-1.07,3.32-1.79,5.18-2.13l.14.77c-1.76.33-3.4,1-4.88,2.01Z"/>
    </g>
    <g>
      <g>
        <path class="cls-11" d="m313.35,309.89l3.91,14.71,81.61.37c2.34.01,3.5,1.8,2.58,3.99l-36.21,86.21c-.68,1.63-2.86,2.93-4.86,2.92l-133.85-.6c-2,0-3.42-1.33-3.15-2.96l13.52-82.87,1.21-7.41,2.08-12.75c.38-2.31,2.63-4.18,5.04-4.17l64.88.29c1.62,0,2.88.89,3.24,2.28Z"/>
        <path class="cls-2" d="m245.22,307.32l64.88.29c1.62,0,2.88.89,3.24,2.28l3.91,14.71,80.08.36"/>
        <g>
          <rect class="cls-1" x="233.27" y="281.32" width="118.45" height="60.72" transform="translate(584.99 623.37) rotate(180)"/>
          <line class="cls-2" x1="244" y1="281.33" x2="328.33" y2="281.33"/>
        </g>
        <path class="cls-7" d="m282.99,306.49l6.76,12.98h69.58c2,0,3.62,1.62,3.62,3.62v91.37c0,2-1.62,3.62-3.62,3.62h-133.44c-2,0-3.62-1.62-3.62-3.62v-106.3c0-2,1.62-3.62,3.62-3.62h53.9c1.35,0,2.59.75,3.21,1.95Z"/>
        <path class="cls-2" d="m225.89,304.55h53.9c1.35,0,2.59.75,3.21,1.95l6.76,12.98h69.58"/>
        <g>
          <circle class="cls-10" cx="354.23" cy="322.87" r="19.12"/>
          <path class="cls-1" d="m362.38,329.97l-7.11-7.11,7.11-7.11c.29-.29.29-.75,0-1.04-.29-.29-.75-.29-1.04,0l-7.11,7.11-7.11-7.11c-.29-.29-.75-.29-1.04,0s-.29.75,0,1.04l7.11,7.11-7.11,7.11c-.29.29-.29.75,0,1.04s.75.29,1.04,0l7.11-7.11,7.11,7.11c.29.29.75.29,1.04,0s.29-.75,0-1.04Z"/>
        </g>
        <g>
          <path class="cls-2" d="m277.15,387.16c11.74-15.88,26.54-9.36,30.29,0"/>
          <g>
            <path class="cls-10" d="m274.7,353.92c0,4.14-1.85,7.5-4.14,7.5s-4.14-3.36-4.14-7.5,1.85-7.5,4.14-7.5,4.14,3.36,4.14,7.5Z"/>
            <path class="cls-10" d="m318.19,353.92c0,4.14-1.85,7.5-4.14,7.5s-4.14-3.36-4.14-7.5,1.85-7.5,4.14-7.5,4.14,3.36,4.14,7.5Z"/>
          </g>
        </g>
      </g>
      <g>
        <g>
          <g>
            <path class="cls-10" d="m145.36,135.63s8.01-11.68,18.03-5.86c12.54,7.29-2.6,24.66,6.66,29.69,9.27,5.03,18.85,5.42,21.52,19.32,3.49,18.18-29.39,43.74-57.2,27.56s-17.91-46.46-4.86-52.49c15.71-7.25,15.84-18.22,15.84-18.22Z"/>
            <path class="cls-9" d="m150.85,163.05v16.05c0,2.08-.85,3.96-2.21,5.32-1.36,1.36-3.24,2.21-5.31,2.21-4.16,0-7.52-3.37-7.52-7.53v-16.05h15.04Z"/>
            <g>
              <path class="cls-9" d="m124.33,158.09c.62,3.05,3.6,5.02,6.65,4.39,3.05-.62,5.02-3.6,4.39-6.65-.62-3.05-3.6-5.02-6.65-4.39-3.05.62-5.02,3.6-4.39,6.65Z"/>
              <line class="cls-2" x1="125.88" y1="155.95" x2="130.34" y2="158.97"/>
            </g>
            <g>
              <path class="cls-9" d="m156.24,156.96c.62,3.05,3.6,5.02,6.65,4.39,3.05-.62,5.02-3.6,4.39-6.65-.62-3.05-3.6-5.02-6.65-4.39-3.05.62-5.02,3.6-4.39,6.65Z"/>
              <path class="cls-10" d="m161.23,155.83s3.22-3.53,2.09-11.89h-4.52l2.43,11.89Z"/>
              <line class="cls-2" x1="160.83" y1="158.31" x2="165.2" y2="154.08"/>
            </g>
            <path class="cls-9" d="m147.1,133.8c8.09,0,14.66,6.56,14.66,14.66v12.04c0,.3-.02.59-.06.88-.21,1.42-.94,2.73-2.07,3.66l-5.94,4.94c-1.8,1.5-4.32,1.79-6.43.73l-11.57-5.8c-2-1.01-3.25-3.05-3.25-5.28v-11.18c0-8.09,6.56-14.66,14.66-14.66h0Z"/>
            <path class="cls-2" d="m140.23,167.1l6.73,3.38c1.14.57,2.39.87,3.67.87h.5"/>
            <polyline class="cls-2" points="149.4 133.8 153.13 159.46 148.45 159.46"/>
            <path class="cls-12" d="m161.76,152.44v7.52c-.17.02-.35.04-.54.04-2.1,0-3.8-1.7-3.8-3.8s1.7-3.79,3.8-3.79c.19,0,.37.02.54.04Z"/>
            <path class="cls-12" d="m143.9,156.2c0,2.1-1.7,3.8-3.8,3.8s-3.8-1.7-3.8-3.8,1.7-3.8,3.8-3.8,3.8,1.7,3.8,3.8Z"/>
            <path class="cls-10" d="m132.45,147.08v9.5s3.77-3.35,3.67-9.95l-3.67.45Z"/>
            <path class="cls-10" d="m165.96,131.78c-10.02-5.82-20.61,3.84-20.61,3.84,0,0,5.12,11.01-15.84,18.22-3.45,1.19-7.75,6.98-9.83,10.29,0,0,4.59-13.24,6.04-21.81,1.45-8.57,9.07-7.25,9.07-7.25,0,0,4.61-11.28,17.37-11.22,8.84.04,13.79,7.93,13.79,7.93Z"/>
            <g>
              <path class="cls-10" d="m158.76,153.14c0,1.32-.58,2.39-1.31,2.39s-1.32-1.07-1.32-2.39c0-1.07.39-1.97.92-2.27h0l1.61,1.42c.05.26.08.55.08.85Z"/>
              <path class="cls-10" d="m144.99,153.14c0,1.32-.58,2.39-1.31,2.39s-1.32-1.07-1.32-2.39c0-.38.05-.74.14-1.06l1.84-.98c.39.42.64,1.17.64,2.04Z"/>
            </g>
            <path class="cls-10" d="m156.04,142.67c1.82-1.19,2.97-.92,2.7,1.61l-2.7-1.61Z"/>
            <path class="cls-10" d="m141.17,144.34c-.41-2.13.27-3.1,2.51-1.89l-2.51,1.89Z"/>
          </g>
          <path class="cls-2" d="m147.1,164.22c1.98-2.67,4.47-1.58,5.1,0"/>
        </g>
        <path class="cls-9" d="m175.18,232.69h0c3.52-1.81,4.9-6.14,3.09-9.66l-16.49-32.97c-1.81-3.52-6.14-4.9-9.66-3.09h0c-3.52,1.81-4.9,6.14-3.09,9.66l16.15,31.68c1.34,2.54,3.76,4.42,6.6,4.83,1.15.17,2.34.1,3.4-.45Z"/>
        <path class="cls-9" d="m107.83,239.24h0c-3.84-.98-6.16-4.88-5.18-8.72l8.67-35.83c.98-3.84,4.88-6.16,8.72-5.18h0c3.84.98,6.16,4.88,5.18,8.72l-8.63,34.49c-.73,2.78-2.67,5.15-5.34,6.19-1.08.42-2.26.62-3.41.33Z"/>
        <g>
          <polygon class="cls-5" points="174.92 204.21 161.16 203.3 146.69 208.01 161.16 208.57 174.92 204.21"/>
          <path class="cls-7" d="m170.41,191.37l2.26,18.02-21.7,2.99,3.17-32.28,5.93.81c5.42.74,9.66,5.03,10.34,10.45Z"/>
          <polygon class="cls-1" points="174.92 204.21 161.16 208.57 146.69 208.01 149.46 216.12 162.18 215.46 175.66 211.25 174.92 204.21"/>
        </g>
        <path class="cls-7" d="m159.41,237.32h-28.69l-18.44-35.76c-3.04-5.89-.5-13.12,5.54-15.83l19.05-8.53,17.26,2.91c5.97,1.01,10.15,6.46,9.57,12.49l-4.3,44.72Z"/>
        <polygon class="cls-7" points="151.7 190.11 153.83 176.04 129.69 173.69 131.93 190.11 151.7 190.11"/>
        <path class="cls-1" d="m132.41,184.12c3.62,4.64,7.88,7.22,12.07,7.22,3.84,0,6.97-2.18,8.83-5.93-.07,1.69-.18,3.66-.37,5.69-.71,7.5-2.16,12.55-4.17,14.6-.66.68-1.37,1.01-2.15,1.01-.32,0-.67-.06-1.02-.17-3.59-1.14-7.2-6.08-10.42-14.27-1.17-2.98-2.1-5.89-2.75-8.15m-1.86-4.09s5.47,24.26,14.8,27.23c.44.14.86.21,1.25.21,8.03,0,7.53-27.35,7.53-27.35-1.04,6.77-4.94,10.48-9.66,10.48s-9.7-3.34-13.92-10.56h0Z"/>
        <g>
          <polygon class="cls-9" points="165.75 404.11 180.21 404.11 174.32 359.39 159.86 359.39 165.75 404.11"/>
          <polygon class="cls-1" points="164.38 404.04 180.66 404.04 178.05 382.76 161.92 384 164.38 404.04"/>
          <g>
            <path class="cls-10" d="m163.1,417.32h36.94l-.97-3.3c-.32-1.08-.79-2.07-1.4-2.98-1.28-1.92-3.16-3.4-5.4-4.19l-1-.35c-.98-.35-1.9-.8-2.76-1.35-.73-.47-1.42-1.01-2.03-1.62-1.34-1.31-2.4-2.91-3.08-4.71h-20.75l.34,12.22.1,6.27Z"/>
            <line class="cls-2" x1="177.29" y1="400.91" x2="184.59" y2="400.91"/>
            <line class="cls-2" x1="179.17" y1="403.45" x2="186.47" y2="403.45"/>
            <g>
              <path class="cls-2" d="m170.04,408.44c-.02.5.37.9.87.9s.91-.4.93-.9c.02-.5-.37-.9-.87-.9s-.91.4-.93.9Z"/>
              <path class="cls-2" d="m174.44,408.44c-.02.5.37.9.87.9s.91-.4.93-.9c.02-.5-.37-.9-.87-.9s-.91.4-.93.9Z"/>
            </g>
            <path class="cls-1" d="m163.1,417.32h36.94l-.97-3.3c-.32-1.08-.79-2.07-1.4-2.98h-34.67l.1,6.27Z"/>
            <line class="cls-2" x1="162.9" y1="414.19" x2="186.13" y2="414.19"/>
            <path class="cls-1" d="m179.31,417.32h20.73l-.97-3.3c-.32-1.08-.79-2.07-1.4-2.98-1.28-1.92-3.16-3.4-5.4-4.19l-1-.35c-.98-.35-1.9-.8-2.76-1.35-4.81,2.22-8.39,6.76-9.21,12.16Z"/>
            <path class="cls-10" d="m183.41,398.83l.47-1.84c.33-1.29-.61-2.53-1.94-2.53h-1.85c-1.46,0-2.85.74-3.67,1.97l-1.62,2.39h8.61Z"/>
          </g>
        </g>
        <g>
          <polygon class="cls-10" points="122.86 230.21 162.73 228.05 159.24 238.16 126.04 237.8 122.86 230.21"/>
          <path class="cls-10" d="m159.24,238.16s13.66,12.63,14.47,35.15h-61.08c0-21.17,13.42-35.51,13.42-35.51l33.2.36Z"/>
          <path class="cls-3" d="m124.09,246.62h9.58s-4.73,10.9-14.15,11.62"/>
          <path class="cls-3" d="m165.77,246.62h-5.28s2.02,10.32,10.59,11.62"/>
          <path class="cls-3" d="m147.87,238.84l-.92,16.71s-3.1-1.65-2.44-7.21"/>
          <rect class="cls-10" x="128.02" y="236.43" width="8.7" height="3.46"/>
          <rect class="cls-10" x="154.83" y="236.43" width="3.03" height="3.46"/>
          <rect class="cls-10" x="139.13" y="236.43" width="13.7" height="3.46"/>
          <rect class="cls-1" x="144.41" y="235.74" width="5.86" height="4.84"/>
        </g>
        <g>
          <polygon class="cls-9" points="109.78 404.08 124.24 404.73 131.64 356.2 117.18 355.55 109.78 404.08"/>
          <polygon class="cls-1" points="108.95 404.04 125.21 404.77 128.02 382.66 111.79 383.64 108.95 404.04"/>
          <g>
            <path class="cls-10" d="m105.78,417.32h36.94l-.32-3.3c-.11-1.08-.39-2.07-.82-2.98-.91-1.92-2.5-3.4-4.59-4.19l-.93-.35c-.91-.35-1.75-.8-2.49-1.35-.64-.47-1.22-1.01-1.71-1.62-1.09-1.31-1.83-2.91-2.16-4.71h-20.75l-2.03,12.22-1.12,6.27Z"/>
            <line class="cls-2" x1="123.16" y1="400.91" x2="130.46" y2="400.91"/>
            <line class="cls-2" x1="124.55" y1="403.45" x2="131.84" y2="403.45"/>
            <g>
              <path class="cls-2" d="m114.44,408.44c-.11.5.2.9.7.9s.99-.4,1.1-.9c.11-.5-.2-.9-.7-.9s-.99.4-1.1.9Z"/>
              <path class="cls-2" d="m118.85,408.44c-.11.5.2.9.7.9s.99-.4,1.1-.9c.11-.5-.2-.9-.7-.9s-.99.4-1.1.9Z"/>
            </g>
            <path class="cls-1" d="m105.78,417.32h36.94l-.32-3.3c-.11-1.08-.39-2.07-.82-2.98h-34.67l-1.12,6.27Z"/>
            <line class="cls-2" x1="129.69" y1="414.19" x2="106.46" y2="414.19"/>
            <path class="cls-1" d="m121.99,417.32h20.73l-.32-3.3c-.11-1.08-.39-2.07-.82-2.98-.91-1.92-2.5-3.4-4.59-4.19l-.93-.35c-.91-.35-1.75-.8-2.49-1.35-5.24,2.22-9.7,6.76-11.58,12.16Z"/>
            <path class="cls-10" d="m129.69,398.83l.83-1.84c.59-1.29-.12-2.53-1.45-2.53h-1.85c-1.46,0-2.99.74-4.06,1.97l-2.08,2.39h8.61Z"/>
          </g>
        </g>
        <polygon class="cls-10" points="144.52 272.22 153.23 378.07 183.47 378.07 173.62 272.65 144.52 272.22"/>
        <polygon class="cls-10" points="117.41 320.73 106.76 378.07 137 378.07 146.5 321.16 117.41 320.73"/>
        <path class="cls-10" d="m117.41,320.73s-4.79-31.43-4.76-47.59h30.24l3.62,48.02-29.1-.43Z"/>
        <g>
          <path class="cls-7" d="m108.16,196.91l-3.07,15.75,21.52,4.09.41-35.12-10.07,4.35c-4.55,1.97-7.84,6.05-8.79,10.92Z"/>
          <polygon class="cls-1" points="103.1 207.37 116.73 210.16 126.74 211.45 123.56 219.41 102.01 214.36 103.1 207.37"/>
        </g>
        <path class="cls-7" d="m159.59,195.92c10.25,15.17,9.72,22.43-2.87,27.99l2.87-27.99Z"/>
        <polyline class="cls-2" points="166.76 208.57 161.11 198.25 163.71 192.6"/>
        <g>
          <g>
            <path class="cls-9" d="m85.93,228.41c-6.03-3.09-13.04-2.89-13.04-2.89l2.1-12.31c11.84,1.38,15.57,6.45,17.24,9.69l-6.3,5.51Z"/>
            <path class="cls-9" d="m72.9,225.52s-5.8-2.38-8.4-7.05l2.7-6.96s3.84,3.91,7.32,4.44c0,0-4.61-3.62-5.48-6.81l2.14-.69s3.41,4.25,8.55,6.06l-6.84,11Z"/>
          </g>
          <path class="cls-2" d="m65.23,216.72s3.84,3.89,7.26,5.79"/>
          <path class="cls-2" d="m66.25,213.98s3.22,3.75,7.6,5.63"/>
        </g>
        <path class="cls-9" d="m116.93,230.52l-29.24-10.01-4.44,5.16c4.98,5.71,10.55,10.74,16.75,14.49,7.41,4.48,16.88-.97,16.92-9.63h0Z"/>
        <polyline class="cls-3" points="157.86 378.07 147.34 269.89 142.04 269.89"/>
        <path class="cls-3" d="m128.02,239.89s-12.8,17.88-10.16,37.46c2.64,19.58,5,43.38,5,43.38l-11.85,57.34"/>
        <line class="cls-2" x1="113.16" y1="228.64" x2="103.94" y2="225.97"/>
        <g>
          <g>
            <path class="cls-9" d="m194.09,217.22c5.18-4.37,12.05-5.74,12.05-5.74l-4.81-11.53c-11.23,4.01-13.72,9.78-14.62,13.31l7.37,3.95Z"/>
            <path class="cls-9" d="m206.14,211.48s5.11-3.62,6.6-8.75l-4.2-6.18s-2.86,4.67-6.14,5.97c0,0,3.68-4.57,3.81-7.86l-2.24-.19s-2.37,4.91-6.97,7.82l9.14,9.19Z"/>
          </g>
          <path class="cls-2" d="m211.64,201.18s-2.87,4.65-5.78,7.27"/>
          <path class="cls-2" d="m210.03,198.74s-2.29,4.38-6.14,7.2"/>
        </g>
        <path class="cls-9" d="m164.36,226.23l26.24-16.32,5.48,4.03c-3.57,6.68-7.87,12.83-13.07,17.88-6.22,6.03-16.67,2.84-18.65-5.59h0Z"/>
        <line class="cls-2" x1="167.6" y1="223.56" x2="175.99" y2="218.88"/>
        <line class="cls-2" x1="111.21" y1="387.76" x2="127.45" y2="387.14"/>
        <line class="cls-2" x1="161.92" y1="387.45" x2="178.46" y2="386.1"/>
      </g>
      <line class="cls-4" x1="33.91" y1="417.6" x2="466.82" y2="417.6"/>
      <g>
        <g>
          <path class="cls-1" d="m300.79,170.84c17.57,3.83,35.14,7.67,52.7,11.5-8.03-23.93,21.89-39.58,13.86-63.52-17.57-3.83-35.14-7.67-52.7-11.5,8.03,23.93-21.89,39.58-13.86,63.52Z"/>
          <g>
            <path class="cls-2" d="m361.03,149.5c5.26-9.54,10.2-19.15,6.33-30.68-17.57-3.83-35.14-7.67-52.7-11.5"/>
            <path class="cls-2" d="m300.79,170.84c17.57,3.83,35.14,7.67,52.7,11.5-2.56-7.63-1.26-14.41,1.43-20.9"/>
          </g>
        </g>
        <g>
          <path class="cls-1" d="m264.62,246.28c15.48-9.15,30.96-18.29,46.45-27.44-22.17-12.07-10.89-43.9-33.06-55.97-15.48,9.15-30.96,18.29-46.45,27.44,22.17,12.07,10.89,43.9,33.06,55.97Z"/>
          <g>
            <path class="cls-2" d="m264.62,246.28c15.48-9.15,30.96-18.29,46.45-27.44-10.05-5.48-13.23-15.01-15.76-24.93"/>
            <path class="cls-2" d="m258.9,174.16c-9.11,5.38-18.23,10.77-27.34,16.15,11.65,6.34,14.06,18.14,16.95,29.66"/>
          </g>
        </g>
        <g>
          <path class="cls-1" d="m359.41,272.05c-15.48-9.15-30.96-18.29-46.45-27.44,22.17-12.07,10.89-43.9,33.06-55.97,15.48,9.15,30.96,18.29,46.45,27.44-22.17,12.07-10.89,43.9-33.06,55.97Z"/>
          <g>
            <path class="cls-2" d="m376.9,240.23c-3.17,12.18-5.12,25.07-17.5,31.81-10.28-6.07-20.56-12.15-30.84-18.22"/>
            <path class="cls-2" d="m330.86,211.29c2.47-9.08,5.88-17.6,15.17-22.66,8.32,4.91,16.63,9.82,24.95,14.74"/>
          </g>
        </g>
      </g>
    </g>
  </g>
</svg>